<svg width="32" height="32" viewBox="0 0 32 32" fill="none" xmlns="http://www.w3.org/2000/svg">
<path fill-rule="evenodd" clip-rule="evenodd" d="M16 2.875C8.75127 2.875 2.875 8.75128 2.875 16C2.875 23.2487 8.75128 29.125 16 29.125C23.2487 29.125 29.125 23.2487 29.125 16C29.125 8.75128 23.2487 2.875 16 2.875ZM1 16C1 7.71574 7.71574 1 16 1C24.2842 1 31 7.71574 31 16C31 24.2842 24.2842 31 16 31C7.71574 31 1 24.2842 1 16Z" fill="#555555"/>
<path d="M20.4067 14.2189L19.0473 18.5033C19.0473 18.1752 18.1098 11.0689 18.1098 11.0689C15.9536 11.0689 14.8098 12.5971 14.2098 14.2189L12.5504 18.5127C12.5504 18.2033 12.3161 14.2564 12.3161 14.2564C12.2361 13.402 11.8454 12.6066 11.2183 12.0208C10.5911 11.4351 9.77085 11.0997 8.91296 11.0782L10.6755 21.8408C12.9254 21.8408 14.1442 20.3127 14.7723 18.6908L16.1786 15.0346C16.1786 15.1846 17.1161 21.8408 17.1161 21.8408C18.0361 21.8395 18.932 21.5455 19.6736 21.001C20.4151 20.4565 20.9643 19.69 21.2411 18.8127L24.4286 11.0689C22.1786 11.0689 20.9973 12.5971 20.3973 14.2189H20.4067Z" fill="#555555"/>
</svg>
