<svg width="24" height="24" viewBox="0 0 24 24" fill="none" xmlns="http://www.w3.org/2000/svg">
<path fill-rule="evenodd" clip-rule="evenodd" d="M1.93428 10.2406C8.00274 7.60516 12.0426 5.85398 14.0712 5.00439C19.8449 2.59435 21.0586 2.17823 21.8388 2.16089C22.0122 2.16089 22.3936 2.19557 22.6537 2.40363C22.8618 2.57701 22.9138 2.80241 22.9485 2.9758C22.9831 3.14918 23.0178 3.51329 22.9831 3.7907C22.6711 7.08501 21.3187 15.078 20.6251 18.7538C20.3304 20.3142 19.7582 20.8344 19.2034 20.8864C17.9897 20.9904 17.0707 20.0888 15.9091 19.3259C14.0712 18.1296 13.0482 17.384 11.2624 16.205C9.19909 14.8526 10.5341 14.1071 11.7132 12.8934C12.0253 12.5813 17.3482 7.72653 17.4522 7.29307C17.4695 7.24105 17.4695 7.03299 17.3482 6.92896C17.2268 6.82493 17.0534 6.85961 16.9147 6.89428C16.724 6.92896 13.8111 8.87087 8.14144 12.7027C7.3092 13.2748 6.56364 13.5522 5.88745 13.5349C5.14189 13.5176 3.72014 13.1188 2.64516 12.772C1.34477 12.3559 0.304468 12.1305 0.39116 11.4023C0.443176 11.0208 0.963329 10.6394 1.93428 10.2406Z" fill="url(#paint0_linear_354_6057)"/>
<defs>
<linearGradient id="paint0_linear_354_6057" x1="11.6824" y1="2.16089" x2="11.6824" y2="20.7465" gradientUnits="userSpaceOnUse">
<stop stop-color="#424D58"/>
<stop offset="1" stop-color="#272A2F"/>
</linearGradient>
</defs>
</svg>
